<?xml version="1.0" encoding="UTF-8"?>
<svg xmlns="http://www.w3.org/2000/svg" width="960" height="864" viewBox="0 0 960 864">
<rect width="100%" height="100%" fill="white"/>
<text x="480.00" y="34" text-anchor="middle" font-family="Times New Roman" font-size="23.2" font-weight="700">Performance Comparison of YOLO26 Models</text>
<text x="480.00" y="58" text-anchor="middle" font-family="Times New Roman" font-size="12.2" fill="#444444">Custom normalized metrics</text>
<polygon points="412.80,398.40 464.35,428.16 464.35,487.68 412.80,517.44 361.25,487.68 361.25,428.16" fill="none" stroke="#d8d8d8" stroke-width="1"/>
<text x="419.80" y="402.40" font-family="Times New Roman" font-size="12.2" fill="#777777">0.2</text>
<polygon points="412.80,338.88 515.89,398.40 515.89,517.44 412.80,576.96 309.71,517.44 309.71,398.40" fill="none" stroke="#d8d8d8" stroke-width="1"/>
<text x="419.80" y="342.88" font-family="Times New Roman" font-size="12.2" fill="#777777">0.4</text>
<polygon points="412.80,279.36 567.44,368.64 567.44,547.20 412.80,636.48 258.16,547.20 258.16,368.64" fill="none" stroke="#d8d8d8" stroke-width="1"/>
<text x="419.80" y="283.36" font-family="Times New Roman" font-size="12.2" fill="#777777">0.6</text>
<polygon points="412.80,219.84 618.98,338.88 618.98,576.96 412.80,696.00 206.62,576.96 206.62,338.88" fill="none" stroke="#d8d8d8" stroke-width="1"/>
<text x="419.80" y="223.84" font-family="Times New Roman" font-size="12.2" fill="#777777">0.8</text>
<polygon points="412.80,160.32 670.53,309.12 670.53,606.72 412.80,755.52 155.07,606.72 155.07,309.12" fill="none" stroke="#d8d8d8" stroke-width="1"/>
<text x="419.80" y="164.32" font-family="Times New Roman" font-size="12.2" fill="#777777">1</text>
<polygon points="412.80,160.32 670.53,309.12 670.53,606.72 412.80,755.52 155.07,606.72 155.07,309.12" fill="none" stroke="#555555" stroke-width="1.5"/>
<line x1="412.80" y1="457.92" x2="412.80" y2="160.32" stroke="#d8d8d8" stroke-width="1"/>
<line x1="412.80" y1="457.92" x2="670.53" y2="309.12" stroke="#d8d8d8" stroke-width="1"/>
<line x1="412.80" y1="457.92" x2="670.53" y2="606.72" stroke="#d8d8d8" stroke-width="1"/>
<line x1="412.80" y1="457.92" x2="412.80" y2="755.52" stroke="#d8d8d8" stroke-width="1"/>
<line x1="412.80" y1="457.92" x2="155.07" y2="606.72" stroke="#d8d8d8" stroke-width="1"/>
<line x1="412.80" y1="457.92" x2="155.07" y2="309.12" stroke="#d8d8d8" stroke-width="1"/>
<text x="412.80" y="122.32" text-anchor="middle" dy="-0.3em" font-family="Times New Roman" font-size="14.5" fill="#222222">mAP@0.5:0.95</text>
<text x="703.44" y="290.12" text-anchor="start" dy="0" font-family="Times New Roman" font-size="14.5" fill="#222222">Small Objects (AP_S)</text>
<text x="703.44" y="625.72" text-anchor="start" dy="0" font-family="Times New Roman" font-size="14.5" fill="#222222">Medium Objects (AP_M)</text>
<text x="412.80" y="793.52" text-anchor="middle" dy="0.9em" font-family="Times New Roman" font-size="14.5" fill="#222222">Large Objects (AP_L)</text>
<text x="122.16" y="625.72" text-anchor="end" dy="0" font-family="Times New Roman" font-size="14.5" fill="#222222">Inference Speed (FPS)</text>
<text x="122.16" y="290.12" text-anchor="end" dy="0" font-family="Times New Roman" font-size="14.5" fill="#222222">Parameter Efficiency</text>
<polygon points="412.80,243.65 570.01,367.15 603.52,568.03 412.80,690.05 170.53,597.79 180.84,324.00" fill="#1f77b4" fill-opacity="0.08" stroke="none"/>
<polyline points="412.80,243.65 570.01,367.15 603.52,568.03 412.80,690.05 170.53,597.79 180.84,324.00 412.80,243.65" fill="none" stroke="#1f77b4" stroke-width="2.34"/>
<circle cx="412.80" cy="243.65" r="3.82" fill="#1f77b4" stroke="white" stroke-width="1"/>
<circle cx="570.01" cy="367.15" r="3.82" fill="#1f77b4" stroke="white" stroke-width="1"/>
<circle cx="603.52" cy="568.03" r="3.82" fill="#1f77b4" stroke="white" stroke-width="1"/>
<circle cx="412.80" cy="690.05" r="3.82" fill="#1f77b4" stroke="white" stroke-width="1"/>
<circle cx="170.53" cy="597.79" r="3.82" fill="#1f77b4" stroke="white" stroke-width="1"/>
<circle cx="180.84" cy="324.00" r="3.82" fill="#1f77b4" stroke="white" stroke-width="1"/>
<polygon points="412.80,231.74 598.36,350.78 616.41,575.47 412.80,701.95 183.42,590.35 196.31,332.93" fill="#ff3b30" fill-opacity="0.08" stroke="none"/>
<polyline points="412.80,231.74 598.36,350.78 616.41,575.47 412.80,701.95 183.42,590.35 196.31,332.93 412.80,231.74" fill="none" stroke="#ff3b30" stroke-width="2.34" stroke-dasharray="8 5"/>
<rect x="408.98" y="227.92" width="7.65" height="7.65" fill="#ff3b30" stroke="white" stroke-width="1"/>
<rect x="594.54" y="346.96" width="7.65" height="7.65" fill="#ff3b30" stroke="white" stroke-width="1"/>
<rect x="612.58" y="571.65" width="7.65" height="7.65" fill="#ff3b30" stroke="white" stroke-width="1"/>
<rect x="408.98" y="698.13" width="7.65" height="7.65" fill="#ff3b30" stroke="white" stroke-width="1"/>
<rect x="179.60" y="586.53" width="7.65" height="7.65" fill="#ff3b30" stroke="white" stroke-width="1"/>
<rect x="192.48" y="329.10" width="7.65" height="7.65" fill="#ff3b30" stroke="white" stroke-width="1"/>
<polygon points="412.80,228.77 582.90,359.71 606.10,569.52 412.80,696.00 196.31,582.91 301.98,393.94" fill="#2ca02c" fill-opacity="0.08" stroke="none"/>
<polyline points="412.80,228.77 582.90,359.71 606.10,569.52 412.80,696.00 196.31,582.91 301.98,393.94 412.80,228.77" fill="none" stroke="#2ca02c" stroke-width="2.34" stroke-dasharray="9 4 2 4"/>
<polygon points="412.80,224.94 408.98,232.59 416.62,232.59" fill="#2ca02c" stroke="white" stroke-width="1"/>
<polygon points="582.90,355.89 579.08,363.54 586.73,363.54" fill="#2ca02c" stroke="white" stroke-width="1"/>
<polygon points="606.10,565.69 602.27,573.35 609.92,573.35" fill="#2ca02c" stroke="white" stroke-width="1"/>
<polygon points="412.80,692.17 408.98,699.83 416.63,699.83" fill="#2ca02c" stroke="white" stroke-width="1"/>
<polygon points="196.31,579.09 192.48,586.74 200.13,586.74" fill="#2ca02c" stroke="white" stroke-width="1"/>
<polygon points="301.98,390.11 298.15,397.76 305.80,397.76" fill="#2ca02c" stroke="white" stroke-width="1"/>
<polygon points="412.80,225.79 588.06,356.74 611.25,572.50 412.80,698.98 178.27,593.33 191.15,329.95" fill="#ff7f0e" fill-opacity="0.08" stroke="none"/>
<polyline points="412.80,225.79 588.06,356.74 611.25,572.50 412.80,698.98 178.27,593.33 191.15,329.95 412.80,225.79" fill="none" stroke="#ff7f0e" stroke-width="2.34" stroke-dasharray="2 5"/>
<polygon points="412.80,221.97 408.98,225.79 412.80,229.62 416.62,225.79" fill="#ff7f0e" stroke="white" stroke-width="1"/>
<polygon points="588.06,352.91 584.23,356.74 588.06,360.56 591.88,356.74" fill="#ff7f0e" stroke="white" stroke-width="1"/>
<polygon points="611.25,568.67 607.43,572.50 611.25,576.32 615.08,572.50" fill="#ff7f0e" stroke="white" stroke-width="1"/>
<polygon points="412.80,695.15 408.98,698.98 412.80,702.80 416.63,698.98" fill="#ff7f0e" stroke="white" stroke-width="1"/>
<polygon points="178.27,589.50 174.44,593.33 178.27,597.15 182.09,593.33" fill="#ff7f0e" stroke="white" stroke-width="1"/>
<polygon points="191.15,326.13 187.33,329.95 191.15,333.78 194.98,329.95" fill="#ff7f0e" stroke="white" stroke-width="1"/>
<rect x="729.60" y="95.04" width="201.60" height="120.00" fill="white" stroke="#b0b0b0" stroke-width="1"/>
<line x1="741.60" y1="115.04" x2="774.60" y2="115.04" stroke="#1f77b4" stroke-width="2"/>
<circle cx="758.10" cy="115.04" r="4.00" fill="#1f77b4" stroke="white" stroke-width="1"/>
<text x="784.60" y="119.04" font-family="Times New Roman" font-size="12.2" fill="#222222">YOLOv8s</text>
<line x1="741.60" y1="140.04" x2="774.60" y2="140.04" stroke="#ff3b30" stroke-width="2" stroke-dasharray="8 5"/>
<rect x="754.10" y="136.04" width="8.00" height="8.00" fill="#ff3b30" stroke="white" stroke-width="1"/>
<text x="784.60" y="144.04" font-family="Times New Roman" font-size="12.2" fill="#222222">AMSA-YOLOv8s</text>
<line x1="741.60" y1="165.04" x2="774.60" y2="165.04" stroke="#2ca02c" stroke-width="2" stroke-dasharray="9 4 2 4"/>
<polygon points="758.10,161.04 754.10,169.04 762.10,169.04" fill="#2ca02c" stroke="white" stroke-width="1"/>
<text x="784.60" y="169.04" font-family="Times New Roman" font-size="12.2" fill="#222222">YOLOv9-C</text>
<line x1="741.60" y1="190.04" x2="774.60" y2="190.04" stroke="#ff7f0e" stroke-width="2" stroke-dasharray="2 5"/>
<polygon points="758.10,186.04 754.10,190.04 758.10,194.04 762.10,190.04" fill="#ff7f0e" stroke="white" stroke-width="1"/>
<text x="784.60" y="194.04" font-family="Times New Roman" font-size="12.2" fill="#222222">YOLO26</text>
</svg>